<svg xmlns="http://www.w3.org/2000/svg" viewBox="0 0 32 32" shape-rendering="crispEdges"><title>DataCenterUpdate</title><rect width="32" height="32" rx="6" fill="#0b2440" shape-rendering="geometricPrecision"/><rect x="2" y="10" width="7" height="1" fill="#ffffff"/><rect x="14" y="10" width="7" height="1" fill="#ffffff"/><rect x="22" y="10" width="2" height="1" fill="#5da9f0"/><rect x="28" y="10" width="2" height="1" fill="#5da9f0"/><rect x="2" y="11" width="7" height="1" fill="#ffffff"/><rect x="14" y="11" width="7" height="1" fill="#ffffff"/><rect x="22" y="11" width="2" height="1" fill="#5da9f0"/><rect x="28" y="11" width="2" height="1" fill="#5da9f0"/><rect x="2" y="12" width="2" height="1" fill="#ffffff"/><rect x="8" y="12" width="2" height="1" fill="#ffffff"/><rect x="12" y="12" width="2" height="1" fill="#ffffff"/><rect x="22" y="12" width="2" height="1" fill="#5da9f0"/><rect x="28" y="12" width="2" height="1" fill="#5da9f0"/><rect x="2" y="13" width="2" height="1" fill="#ffffff"/><rect x="8" y="13" width="2" height="1" fill="#ffffff"/><rect x="12" y="13" width="2" height="1" fill="#ffffff"/><rect x="22" y="13" width="2" height="1" fill="#5da9f0"/><rect x="28" y="13" width="2" height="1" fill="#5da9f0"/><rect x="2" y="14" width="2" height="1" fill="#ffffff"/><rect x="8" y="14" width="2" height="1" fill="#ffffff"/><rect x="12" y="14" width="2" height="1" fill="#ffffff"/><rect x="22" y="14" width="2" height="1" fill="#5da9f0"/><rect x="28" y="14" width="2" height="1" fill="#5da9f0"/><rect x="2" y="15" width="2" height="1" fill="#ffffff"/><rect x="8" y="15" width="2" height="1" fill="#ffffff"/><rect x="12" y="15" width="2" height="1" fill="#ffffff"/><rect x="22" y="15" width="2" height="1" fill="#5da9f0"/><rect x="28" y="15" width="2" height="1" fill="#5da9f0"/><rect x="2" y="16" width="2" height="1" fill="#ffffff"/><rect x="8" y="16" width="2" height="1" fill="#ffffff"/><rect x="12" y="16" width="2" height="1" fill="#ffffff"/><rect x="22" y="16" width="2" height="1" fill="#5da9f0"/><rect x="28" y="16" width="2" height="1" fill="#5da9f0"/><rect x="2" y="17" width="2" height="1" fill="#ffffff"/><rect x="8" y="17" width="2" height="1" fill="#ffffff"/><rect x="12" y="17" width="2" height="1" fill="#ffffff"/><rect x="22" y="17" width="2" height="1" fill="#5da9f0"/><rect x="28" y="17" width="2" height="1" fill="#5da9f0"/><rect x="2" y="18" width="2" height="1" fill="#ffffff"/><rect x="8" y="18" width="2" height="1" fill="#ffffff"/><rect x="12" y="18" width="2" height="1" fill="#ffffff"/><rect x="22" y="18" width="2" height="1" fill="#5da9f0"/><rect x="28" y="18" width="2" height="1" fill="#5da9f0"/><rect x="2" y="19" width="2" height="1" fill="#ffffff"/><rect x="8" y="19" width="2" height="1" fill="#ffffff"/><rect x="12" y="19" width="2" height="1" fill="#ffffff"/><rect x="22" y="19" width="2" height="1" fill="#5da9f0"/><rect x="28" y="19" width="2" height="1" fill="#5da9f0"/><rect x="2" y="20" width="7" height="1" fill="#ffffff"/><rect x="14" y="20" width="7" height="1" fill="#ffffff"/><rect x="24" y="20" width="5" height="1" fill="#5da9f0"/><rect x="2" y="21" width="7" height="1" fill="#ffffff"/><rect x="14" y="21" width="7" height="1" fill="#ffffff"/><rect x="24" y="21" width="5" height="1" fill="#5da9f0"/></svg>
